<?xml version="1.0"?>
<svg id="Layer_1" data-name="Layer 1" xmlns="http://www.w3.org/2000/svg" viewBox="0 0 374.86 243.4">
  <defs>
    
  </defs>
  <g>
    <path class="cls-1" d="M90.05,53.43l47.08-7.49,91.81-13.09,13.79-1.59-4.74-8.52,45.88,10.27-39.52,20.9,1.42-9.35-63.31,7.15c-15.89,1.8-31.46,1.81-47.44,2.3-15.11.46-29.78.26-44.96-.58Z"></path>
    <path class="cls-1" d="M93.2,39.25l47.92-8.34-2.11-9.31c-.28-1.24,2.24-1.8,3.21-1.99l55.98-11.08-2.41-8.52,36.23,9.84c-11.26,3.53-22.08,6.27-33.45,8.81l-42.06,9.4,3.21,10.66-8.63.27-57.89.27Z"></path>
    <path class="cls-1" d="M217.2,78c-30.96-1.76-61.6-3.73-92.8-7.18l39.46-3.07c19.4-1.51,38.44-1.18,57.87-.91,9.13.13,17.6.62,27.02,1.31l-31.35,18.34-.19-8.49Z"></path>
  </g>
  <g>
    <path class="cls-2" d="M32.37,115.11H15.37l2.16-12.67h50.09l-2.17,12.67h-17l-8.33,47.33h-16.08l8.33-47.33Z"></path>
    <path class="cls-2" d="M72.93,102.44h24.67c15.17,0,22.25,6.67,20.42,16.75l-.17.92c-1.5,8.42-9,12.67-16.5,13.25l-.08.59c7.08,1.25,9.83,5.08,10.42,11.83l.75,8.42c.25,3,.92,5.66,1.92,6.83l-.25,1.42h-17.42c-1-1.83-1.67-4.42-1.75-8.33l-.25-8.34c-.17-4.91-2.17-6.33-6.59-6.33h-5.66l-4,23h-16l10.5-60ZM102.1,121.45l.17-.92c.83-4.58-1.92-7-7.58-7h-7.83l-2.58,14.66h7.67c5.58,0,9.33-2,10.16-6.75Z"></path>
    <path class="cls-2" d="M128.99,102.44h16.08l-10.5,60h-16.08l10.5-60Z"></path>
    <path class="cls-2" d="M153.31,102.44h21.75c19.58,0,29.84,11.59,26.67,29.17l-.75,4.17c-3.16,17.75-15.66,26.67-35.25,26.67h-22.92l10.5-60ZM184.81,134.44l.59-3.58c1.83-11-2.67-16.66-12-16.66h-6.08l-6.34,36.5h6c10.17,0,15.83-4.92,17.83-16.25Z"></path>
    <path class="cls-2" d="M213.2,102.44h42.17l-2.09,12h-26.16l-2.16,11.75h22.91l-2,11.33h-22.83l-2.33,12.91h26.16l-2,12h-42.16l10.5-60Z"></path>
    <path class="cls-2" d="M261.35,102.44h12.42l19.75,34.67h.66c.08-3.5.59-8.17,1.34-12.67l3.83-22h15.08l-10.5,60h-12.25l-19.75-35.33h-.58c-.08,3.5-.5,8-1.34,12.67l-4,22.67h-15.17l10.5-60Z"></path>
    <path class="cls-2" d="M334.16,115.11h-17l2.16-12.67h50.09l-2.17,12.67h-17l-8.33,47.33h-16.08l8.33-47.33Z"></path>
    <path class="cls-2" d="M10.5,182.32h42.17l-2.09,12h-26.16l-2.16,11.75h22.91l-2,11.33h-22.83l-2.33,12.91h26.16l-2,12H0l10.5-60Z"></path>
    <path class="cls-2" d="M77.39,223.4h-.41l-13.75,18.92h-18.33l25.5-31.5-13.33-28.5h17.66l6.67,16.75h.41l12.17-16.75h18.17l-23.67,29.34,14.42,30.66h-17.5l-8-18.92Z"></path>
    <path class="cls-2" d="M117.37,182.32h26.58c14,0,22.92,7.25,20.75,19.17l-.34,1.67c-2.16,11.91-12.42,17.16-26.16,17.16h-11.42l-3.83,22h-16.08l10.5-60ZM149.03,201.73l.17-.92c.83-4.67-2.42-7.17-8.58-7.17h-9.42l-2.67,15.33h9.42c6.16,0,10.16-2.33,11.08-7.25Z"></path>
    <path class="cls-2" d="M173.59,182.32h24.67c15.17,0,22.25,6.67,20.42,16.75l-.17.92c-1.5,8.42-9,12.67-16.5,13.25l-.08.59c7.08,1.25,9.83,5.08,10.42,11.83l.75,8.42c.25,3,.92,5.66,1.92,6.83l-.25,1.42h-17.42c-1-1.83-1.67-4.42-1.75-8.33l-.25-8.34c-.17-4.91-2.17-6.33-6.59-6.33h-5.66l-4,23h-16l10.5-60ZM202.76,201.32l.17-.92c.83-4.58-1.92-7-7.58-7h-7.83l-2.58,14.66h7.67c5.58,0,9.33-2,10.16-6.75Z"></path>
    <path class="cls-2" d="M229.65,182.32h42.17l-2.09,12h-26.16l-2.16,11.75h22.91l-2,11.33h-22.83l-2.33,12.91h26.16l-2,12h-42.16l10.5-60Z"></path>
    <path class="cls-2" d="M267.97,223.07h15.66c.75,6.75,4,8.92,9.25,8.92,5.75,0,8.58-2.58,8.58-6.08s-2.75-4.92-6.58-6.17l-8.17-2.5c-7.92-2.42-13.92-6.67-13.92-16,0-11.58,8.08-20,24.17-20,14.75,0,22.67,6.92,24.08,20h-15.66c-1.08-6-4-8.58-8.92-8.58s-7.83,2.34-7.83,6c0,3.25,1.92,4.58,6.5,6l8.17,2.5c7.75,2.42,13.75,6.75,13.75,15.92,0,11.58-8.83,20.33-25,20.33-14.92,0-22.75-6.92-24.08-20.33Z"></path>
    <path class="cls-2" d="M321.78,223.07h15.66c.75,6.75,4,8.92,9.25,8.92,5.75,0,8.58-2.58,8.58-6.08s-2.75-4.92-6.58-6.17l-8.17-2.5c-7.92-2.42-13.92-6.67-13.92-16,0-11.58,8.08-20,24.17-20,14.75,0,22.67,6.92,24.08,20h-15.66c-1.08-6-4-8.58-8.92-8.58s-7.83,2.34-7.83,6c0,3.25,1.92,4.58,6.5,6l8.17,2.5c7.75,2.42,13.75,6.75,13.75,15.92,0,11.58-8.83,20.33-25,20.33-14.92,0-22.75-6.92-24.08-20.33Z"></path>
  </g>
</svg>