<?xml version="1.0"?>
<svg id="Layer_1" data-name="Layer 1" xmlns="http://www.w3.org/2000/svg" viewBox="0 0 345.61 154.23">
  <defs>
    
  </defs>
  <path class="cls-1" d="M0,95.27l83.95-13.35,163.72-23.34,24.59-2.83-8.46-15.2,81.81,18.32-70.48,37.26,2.53-16.67-112.89,12.76c-28.34,3.2-56.09,3.23-84.59,4.09-26.95.82-53.11.47-80.18-1.03Z"></path>
  <path class="cls-1" d="M5.62,69.98l85.45-14.88-3.75-16.61c-.5-2.21,3.99-3.2,5.73-3.55l99.82-19.77-4.3-15.19,64.6,17.55c-20.08,6.29-39.38,11.17-59.64,15.7l-75,16.76,5.72,19.01-15.4.48-103.23.48Z"></path>
  <path class="cls-1" d="M226.74,139.09c-55.2-3.14-109.85-6.65-165.47-12.81l70.36-5.48c34.6-2.69,68.54-2.1,103.19-1.62,16.29.23,31.39,1.1,48.18,2.34l-55.91,32.71-.34-15.15Z"></path>
</svg>